<svg width="120" height="60" viewBox="0 0 120 60" fill="none" xmlns="http://www.w3.org/2000/svg">
    <path d="M22 10H35V50H22V10Z" fill="#0A84FF" />
    <path d="M42 10H55V50H42V10Z" fill="#0A84FF" />
    <path d="M62 10H75V50H62V10Z" fill="#0A84FF" />
    <path
        d="M82 30C82 19.5066 90.5066 11 101 11C108.732 11 115.302 16.2168 117.645 23.3333H103.984C102.868 21.9354 101.042 21 99 21C95.6863 21 93 23.6863 93 27C93 30.3137 95.6863 33 99 33C101.042 33 102.868 32.0646 103.984 30.6667H117.645C115.302 37.7832 108.732 43 101 43C90.5066 43 82 34.4934 82 24V30Z"
        fill="#0A84FF" />
</svg> 